<?xml version="1.0" encoding="UTF-8" standalone="no"?>
<svg
   xmlns:dc="http://purl.org/dc/elements/1.1/"
   xmlns:cc="http://creativecommons.org/ns#"
   xmlns:rdf="http://www.w3.org/1999/02/22-rdf-syntax-ns#"
   xmlns:svg="http://www.w3.org/2000/svg"
   xmlns="http://www.w3.org/2000/svg"
   id="svg34"
   version="1.1"
   style="overflow:visible"
   viewBox="-240 -126 480 252"
   height="1008px"
   width="1920px">
  <metadata
     id="metadata40">
    <rdf:RDF>
      <cc:Work
         rdf:about="">
        <dc:format>image/svg+xml</dc:format>
        <dc:type
           rdf:resource="http://purl.org/dc/dcmitype/StillImage" />
      </cc:Work>
    </rdf:RDF>
  </metadata>
  <defs
     id="defs38" />
  <rect
     id="rect2"
     fill-opacity="0"
     fill="rgb(0,0,0)"
     height="252"
     width="480"
     y="-126"
     x="-240" />
  <svg
     id="svg32"
     version="1.1"
     y="-250"
     x="-250"
     viewBox="-250 -250 500 500"
     height="500"
     width="500"
     style="overflow:visible">
    <g
       style="fill:#ffffff;stroke-linejoin:round"
       id="g30">
      <path
         style="fill:#555555;fill-opacity:1;stroke:none;stroke-linecap:butt;stroke-linejoin:round"
         id="path4"
         d="m -91.5866,22.851499 c -11.52424,28.41734 -12.53644,62.4043 6.726958,68.38335 13.2615,4.116217 46.03872,6.537775 84.859599,6.537775 38.820879,0 71.5974,-2.421559 84.859599,-6.537776 19.263304,-5.979092 18.251244,-39.96601 6.726964,-68.38335 z" />
      <path
         style="fill:#666666;fill-opacity:1;stroke:none;stroke-linecap:butt;stroke-linejoin:round"
         id="path6"
         d="m -48.4897,-70.0273 c -4.839163,12.20898 -8.01024,37.03749 -8.51949,53.31067 -14.30737,3.842187 -26.82127,20.44504 -34.57664,39.56876 5.342414,44.12345 16.76332,51.320709 91.586599,51.320709 74.823,0 86.2435,-7.19726 91.586599,-51.32071 -7.75544,-19.12386 -20.26934,-35.7266 -34.57664,-39.56876 -0.509285,-16.27318 -3.680334,-41.10169 -8.51949,-53.31067 h -17.7485 v 19.591879 h -61.48275 v -19.59188 z" />
      <path
         style="fill:none;stroke:#444444;stroke-width:7;stroke-linecap:butt;stroke-linejoin:round;stroke-opacity:1"
         id="path8"
         d="m -48.4897,-70.0273 c -4.839163,12.20898 -8.01024,37.03749 -8.51949,53.31067 -35.56763,9.55164 -60.07659,97.9489 -27.84971,107.9519 13.2615,4.116217 46.03872,6.537775 84.859599,6.537775 38.820739,0 71.5974,-2.421559 84.859599,-6.537776 32.226812,-10.00279 7.71792,-98.4011 -27.84971,-107.951901 -0.509285,-16.27318 -3.680334,-41.10169 -8.51949,-53.31067 h -17.7485 v 19.591879 h -61.48275 v -19.59188 z" />
      <path
         style="fill:#ffffff;fill-opacity:1;stroke:none;stroke-linecap:butt;stroke-linejoin:round"
         id="path10"
         d="m 114.1112,-71.5274 c 5.15716,-0.112665 9.73189,0.970178 13.02322,3.766832 10.83341,14.0231 11.70197,35.676759 5.44556,50.21912 -7.59024,16.14242 -24.78812,18.73942 -41.737923,7.753969 -27.13417,-17.5861 -31.53731,-33.83247 -15.94166,-46.17109 8.9467,-7.14616 25.985753,-15.27995 39.210853,-15.56891 z" />
      <path
         style="fill:#666666;fill-opacity:1;stroke:none;stroke-linecap:butt;stroke-linejoin:round"
         id="path12"
         d="m 0,-97.7732 c -54.17979,0.0765 -101.1626,8.01192 -121.1798,23.93188 -16.34192,12.997039 -18.65591,39.43569 -11.40041,56.30009 7.59024,16.14242 24.78819,18.73942 41.737919,7.753969 27.13417,-17.5861 31.537309,-33.83247 15.94166,-46.17109 21.13384,-8.51802 47.28003,-12.67742 74.9007,-12.77647 27.620879,0.09899 53.767139,4.258414 74.9007,12.776469 -15.59565,12.338619 -11.19244,28.58499 15.94166,46.171089 16.949731,10.98538 34.147681,8.388449 41.737921,-7.75397 7.25536,-16.8644 4.94143,-43.30319 -11.40041,-56.30009 -20.01706,-15.91996 -67.000292,-23.85537 -121.179802,-23.93188 z" />
      <path
         style="fill:#ffffff;fill-opacity:1;stroke:none;stroke-linecap:butt;stroke-linejoin:round"
         id="path14"
         d="M 54.652499,10.185 A 54.652429,49.066219 0 0 1 6.9e-5,59.251219 54.652429,49.066219 0 0 1 -54.652361,10.184999 54.652429,49.066219 0 0 1 6.8e-5,-38.881221 54.652429,49.066219 0 0 1 54.652497,10.184998 Z" />
      <path
         style="fill:#444444;fill-opacity:1;stroke:none;stroke-linecap:butt;stroke-linejoin:round"
         id="path16"
         d="m 25.400199,-22.5701 a 7.3717,7.39144 0 0 1 -7.37177,7.39144 7.3717,7.39144 0 0 1 -7.3717,-7.39144 7.3717,7.39144 0 0 1 7.3717,-7.39144 7.3717,7.39144 0 0 1 7.37177,7.39144 z m -7.09667,66.31912 a 7.3717,7.39144 0 0 1 -7.3717,7.39144 7.3717,7.39144 0 0 1 -7.3717,-7.39144 7.3717,7.39144 0 0 1 7.3717,-7.39144 7.3717,7.39144 0 0 1 7.3717,7.39144 z M 0.612989,43.331708 a 7.3717,7.39144 0 0 1 -7.37177,7.39144 7.3717,7.39144 0 0 1 -7.3717,-7.39144 7.3717,7.39144 0 0 1 7.3717,-7.39144 7.3717,7.39144 0 0 1 7.37177,7.39144 z m -16.79559,-6.298642 a 7.3717,7.39144 0 0 1 -7.3717,7.39144 7.3717,7.39144 0 0 1 -7.3717,-7.39144 7.3717,7.39144 0 0 1 7.3717,-7.39144 7.3717,7.39144 0 0 1 7.3717,7.39144 z m -12.83093,-13.35691 a 7.3717,7.39144 0 0 1 -7.37177,7.39144 7.3717,7.39144 0 0 1 -7.3717,-7.39144 7.3717,7.39144 0 0 1 7.3717,-7.39144 7.3717,7.39144 0 0 1 7.37177,7.39144 z m -2.858324,-17.83754 a 7.3717,7.39144 0 0 1 -7.37177,7.39144 7.3717,7.39144 0 0 1 -7.3717,-7.39144 7.3717,7.39144 0 0 1 7.3717,-7.39144 7.3717,7.39144 0 0 1 7.37177,7.39144 z m 7.24262,-16.77452 a 7.3717,7.39144 0 0 1 -7.3717,7.39144 7.3717,7.39144 0 0 1 -7.3717,-7.39144 7.3717,7.39144 0 0 1 7.3717,-7.39144 7.3717,7.39144 0 0 1 7.3717,7.39144 z m 14.998759,-11.39754 a 7.3717,7.39144 0 0 1 -7.37177,7.39144 7.3717,7.39144 0 0 1 -7.3717,-7.39144 7.3717,7.39144 0 0 1 7.3717,-7.39144 7.3717,7.39144 0 0 1 7.37177,7.39144 z m 17.74262,-3.540726 a 7.3717,7.39144 0 0 1 -7.37177,7.39144 7.3717,7.39144 0 0 1 -7.3717,-7.39144 7.3717,7.39144 0 0 1 7.3717,-7.39144 7.3717,7.39144 0 0 1 7.37177,7.39144 z m 31.368399,15.282749 a 7.3717,7.39144 0 0 1 -7.37177,7.39144 7.3717,7.39144 0 0 1 -7.3717,-7.39144 7.3717,7.39144 0 0 1 7.3717,-7.39144 7.3717,7.39144 0 0 1 7.37177,7.39144 z" />
      <path
         style="fill:#666666;fill-opacity:1;stroke:#444444;stroke-width:7;stroke-linecap:butt;stroke-linejoin:round;stroke-opacity:1"
         id="path18"
         d="M 23.933699,8.6702 A 23.933909,21.319549 0 0 1 -2.11e-4,29.989749 23.933909,21.319549 0 0 1 -23.934121,8.670199 23.933909,21.319549 0 0 1 -2.12e-4,-12.649351 23.933909,21.319549 0 0 1 23.933697,8.670198 Z" />
      <path
         style="fill:none;stroke:#444444;stroke-width:7;stroke-linecap:butt;stroke-linejoin:round;stroke-opacity:1"
         id="path20"
         d="M 54.652499,10.185 A 54.652429,49.066219 0 0 1 6.9e-5,59.251219 54.652429,49.066219 0 0 1 -54.652361,10.184999 54.652429,49.066219 0 0 1 6.8e-5,-38.881221 54.652429,49.066219 0 0 1 54.652497,10.184998 Z" />
      <path
         style="fill:#ffffff;fill-opacity:1;stroke:#444444;stroke-width:7;stroke-linecap:butt;stroke-linejoin:round;stroke-opacity:1"
         id="path22"
         d="m 45.5133,45.740799 c -6.128507,-4.04313 -11.88782,-9.8224 -17.94723,-15.55547 l -4.783681,4.340966 c 2.006857,7.41118 6.347488,15.43619 10.572659,21.245 4.557917,-1.782872 9.74652,-6.16427 12.158299,-10.03044 z" />
      <path
         style="fill:#777777;fill-opacity:1;stroke:none;stroke-linecap:butt;stroke-linejoin:round"
         id="path24"
         d="m -75.2577,-47.401901 c 3.84027,4.319868 3.257358,9.56074 -1.611176,13.10337 -4.086537,2.973592 -8.38572,-0.326459 -13.2076,-6.271972 -4.821873,-5.945506 -18.843794,-21.47971 -14.921484,-24.66723 3.92236,-3.18745 19.640044,6.474272 29.740203,17.83586 z" />
      <path
         style="fill:#777777;fill-opacity:1;stroke:none;stroke-linecap:butt;stroke-linejoin:round"
         id="path26"
         d="m 75.259099,-47.401901 c -3.840277,4.319868 -3.257366,9.56074 1.611169,13.10337 4.086544,2.973592 8.385719,-0.326459 13.207599,-6.271972 4.821879,-5.945506 18.843793,-21.47971 14.921483,-24.66723 -3.92236,-3.18745 -19.640043,6.474272 -29.740203,17.83586 z" />
      <path
         style="fill:none;stroke:#444444;stroke-width:7;stroke-linecap:butt;stroke-linejoin:round;stroke-opacity:1"
         id="path28"
         d="m 0,-97.7732 c -54.17979,0.0765 -101.1626,8.01192 -121.1798,23.93188 -16.34192,12.997039 -18.65591,39.43569 -11.40041,56.30009 7.59024,16.14242 24.78819,18.73942 41.737919,7.753969 27.13417,-17.5861 31.537309,-33.83247 15.94166,-46.17109 21.13384,-8.51802 47.28003,-12.67742 74.9007,-12.77647 27.620879,0.09899 53.767139,4.258414 74.9007,12.776469 -15.59565,12.338619 -11.19244,28.58499 15.94166,46.171089 16.949731,10.98538 34.147681,8.388449 41.737921,-7.75397 7.25536,-16.8644 4.94143,-43.30319 -11.40041,-56.30009 -20.01706,-15.91996 -67.000292,-23.85537 -121.179802,-23.93188 z" />
    </g>
  </svg>
</svg>
